<svg width="52" height="52" viewBox="0 0 52 52" fill="none" xmlns="http://www.w3.org/2000/svg">
<path d="M40.824 52H11.176C5.003 52 0 46.997 0 40.824V11.176C0 5.003 5.003 0 11.176 0H40.825C46.997 0 52 5.003 52 11.176V40.825C52 46.997 46.997 52 40.824 52Z" fill="#69461E"/>
<path d="M19.5695 26.3529C19.5695 28.888 18.902 30.7997 17.567 32.0882C16.2456 33.3627 14.3983 34 12.025 34H8V19H12.4498C13.9061 19 15.1669 19.2801 16.2321 19.8403C17.2974 20.4006 18.1199 21.2269 18.6997 22.3193C19.2795 23.3978 19.5695 24.7423 19.5695 26.3529ZM17.648 26.416C17.648 24.4132 17.1693 22.9496 16.2119 22.0252C15.268 21.0868 13.9263 20.6176 12.1868 20.6176H9.82037V32.3824H11.7823C15.6927 32.3824 17.648 30.3936 17.648 26.416Z" fill="#FBC500"/>
<path d="M22.7747 19H26.9009C28.7077 19 30.0696 19.2801 30.9866 19.8403C31.917 20.3866 32.3822 21.3459 32.3822 22.7185C32.3822 23.6008 32.1462 24.3361 31.6743 24.9244C31.2023 25.4986 30.5214 25.8697 29.6314 26.0378V26.1429C30.2382 26.2409 30.7843 26.423 31.2697 26.6891C31.7687 26.9552 32.1597 27.3333 32.4429 27.8235C32.726 28.3137 32.8676 28.951 32.8676 29.7353C32.8676 31.0938 32.4159 32.1443 31.5125 32.8866C30.6225 33.6289 29.4022 34 27.8515 34H22.7747V19ZM24.5951 25.3866H27.2649C28.5055 25.3866 29.355 25.1835 29.8135 24.7773C30.2719 24.3571 30.5011 23.7409 30.5011 22.9286C30.5011 22.1022 30.218 21.514 29.6516 21.1639C29.0988 20.7997 28.2088 20.6176 26.9818 20.6176H24.5951V25.3866ZM24.5951 26.9622V32.4034H27.5077C28.7887 32.4034 29.6786 32.1443 30.1775 31.6261C30.6764 31.1078 30.9259 30.4286 30.9259 29.5882C30.9259 28.8039 30.663 28.1737 30.1371 27.6975C29.6247 27.2073 28.701 26.9622 27.3661 26.9622H24.5951Z" fill="#FBC500"/>
<path d="M37.7501 34H35.9297V19H44V20.6597H37.7501V25.9748H43.6157V27.6345H37.7501V34Z" fill="#FBC500"/>
</svg>
