<svg width="52" height="52" viewBox="0 0 52 52" fill="none" xmlns="http://www.w3.org/2000/svg">
<path d="M40.824 52H11.176C5.003 52 0 46.997 0 40.824V11.176C0 5.003 5.003 0 11.176 0H40.825C46.997 0 52 5.003 52 11.176V40.825C52 46.997 46.997 52 40.824 52Z" fill="#255C26"/>
<path d="M17.2166 29.8924C17.2166 31.1866 16.7466 32.1948 15.8065 32.9169C14.8665 33.639 13.5995 34 12.0054 34C11.188 34 10.4319 33.9387 9.73706 33.8161C9.04223 33.6935 8.46322 33.5232 8 33.3052V31.5477C8.49046 31.7657 9.09673 31.9632 9.8188 32.1403C10.5545 32.3174 11.3106 32.406 12.0872 32.406C13.1771 32.406 13.9946 32.1948 14.5395 31.7725C15.0981 31.3501 15.3774 30.7779 15.3774 30.0559C15.3774 29.579 15.2752 29.1771 15.0708 28.8501C14.8665 28.5232 14.5123 28.2234 14.0082 27.951C13.5177 27.6649 12.8297 27.3651 11.9441 27.0518C10.7044 26.6022 9.76431 26.0504 9.12398 25.3965C8.49728 24.7425 8.18392 23.8501 8.18392 22.7193C8.18392 21.9428 8.38147 21.282 8.77657 20.7371C9.17166 20.1785 9.71662 19.7493 10.4114 19.4496C11.1199 19.1499 11.9305 19 12.8433 19C13.6471 19 14.3828 19.0749 15.0504 19.2248C15.718 19.3747 16.3243 19.5722 16.8692 19.8174L16.297 21.391C15.7929 21.173 15.2411 20.9891 14.6417 20.8392C14.0559 20.6894 13.4428 20.6144 12.8025 20.6144C11.8896 20.6144 11.2016 20.812 10.7384 21.2071C10.2752 21.5886 10.0436 22.0995 10.0436 22.7398C10.0436 23.2302 10.1458 23.639 10.3501 23.9659C10.5545 24.2929 10.8883 24.5858 11.3515 24.8447C11.8147 25.1035 12.4414 25.3828 13.2316 25.6826C14.0899 25.9959 14.812 26.3365 15.3978 26.7044C15.9973 27.0586 16.4469 27.4877 16.7466 27.9918C17.0599 28.4959 17.2166 29.1294 17.2166 29.8924Z" fill="#25EB00"/>
<path d="M31.3139 33.7956H29.4747V26.9905H21.9951V33.7956H20.1559V19.2044H21.9951V25.376H29.4747V19.2044H31.3139V33.7956Z" fill="#25EB00"/>
<path d="M45.2147 33.7956H43.1302L39.2678 27.4605L35.3441 33.7956H33.4027L38.246 26.1935L33.7092 19.2044H35.7528L39.3291 24.9264L42.9259 19.2044H44.8673L40.3509 26.1526L45.2147 33.7956Z" fill="#25EB00"/>
</svg>
