<svg width="52" height="52" viewBox="0 0 52 52" fill="none" xmlns="http://www.w3.org/2000/svg">
<path d="M40.824 52H11.176C5.003 52 0 46.997 0 40.824V11.176C0 5.003 5.003 0 11.176 0H40.825C46.997 0 52 5.003 52 11.176V40.825C52 46.997 46.997 52 40.824 52Z" fill="#7A2F32"/>
<path d="M22.8564 31.8428V30.8184C22.8564 29.8573 22.9449 29.0352 23.122 28.3523C23.3243 27.6441 23.6531 26.9738 24.1084 26.3415C24.589 25.7091 25.234 25.0515 26.0434 24.3686C27.0298 23.5339 27.7886 22.8383 28.3198 22.2818C28.8762 21.7254 29.2683 21.1816 29.4959 20.6504C29.7236 20.1192 29.8374 19.4743 29.8374 18.7154C29.8374 17.5014 29.4453 16.5655 28.6612 15.9079C27.8771 15.2502 26.7389 14.9214 25.2466 14.9214C24.0072 14.9214 22.907 15.0858 21.9458 15.4146C20.9846 15.7182 20.0614 16.0849 19.1762 16.5149L18 13.8591C19.0117 13.3279 20.1247 12.8853 21.3388 12.5312C22.5781 12.1771 23.9566 12 25.4743 12C27.8771 12 29.7362 12.5944 31.0515 13.7832C32.3668 14.972 33.0244 16.5908 33.0244 18.6396C33.0244 19.7778 32.8347 20.7516 32.4553 21.561C32.1012 22.3451 31.5827 23.0786 30.8997 23.7615C30.2421 24.4192 29.458 25.1274 28.5474 25.8862C27.7127 26.5944 27.0677 27.2141 26.6125 27.7453C26.1825 28.2764 25.8916 28.8076 25.7398 29.3388C25.5881 29.8446 25.5122 30.4643 25.5122 31.1978V31.8428H22.8564ZM21.9837 37.4201C21.9837 36.4842 22.1987 35.8266 22.6287 35.4472C23.084 35.0677 23.6531 34.878 24.336 34.878C24.9684 34.878 25.5122 35.0677 25.9675 35.4472C26.4228 35.8266 26.6504 36.4842 26.6504 37.4201C26.6504 38.3306 26.4228 38.9883 25.9675 39.393C25.5122 39.7976 24.9684 40 24.336 40C23.6531 40 23.084 39.7976 22.6287 39.393C22.1987 38.9883 21.9837 38.3306 21.9837 37.4201Z" fill="#F63415"/>
</svg>
